<svg width="404" height="170" viewBox="0 0 404 170" fill="none" xmlns="http://www.w3.org/2000/svg">
<path d="M139.824 110C139.59 108.233 139.107 106.7 138.374 105.4C137.64 104.067 136.657 103.05 135.424 102.35C134.224 101.617 132.774 101.25 131.074 101.25C129.44 101.25 128.074 101.717 126.974 102.65C125.907 103.583 125.374 104.733 125.374 106.1C125.374 107.233 125.69 108.217 126.324 109.05C126.99 109.883 127.94 110.65 129.174 111.35C130.407 112.017 131.874 112.717 133.574 113.45C134.84 113.983 136.124 114.583 137.424 115.25C138.724 115.883 139.924 116.65 141.024 117.55C142.124 118.45 143.007 119.5 143.674 120.7C144.374 121.867 144.724 123.267 144.724 124.9C144.724 126.833 144.207 128.55 143.174 130.05C142.174 131.55 140.74 132.717 138.874 133.55C137.007 134.383 134.807 134.8 132.274 134.8C130.874 134.8 129.39 134.583 127.824 134.15C126.257 133.75 124.824 133.133 123.524 132.3L123.674 134.45H120.274L120.174 123.1H123.024C123.39 125.933 124.44 128.083 126.174 129.55C127.907 130.983 129.99 131.7 132.424 131.7C133.657 131.7 134.757 131.483 135.724 131.05C136.69 130.583 137.44 129.967 137.974 129.2C138.54 128.4 138.824 127.5 138.824 126.5C138.824 125.2 138.424 124.133 137.624 123.3C136.824 122.467 135.807 121.75 134.574 121.15C133.34 120.55 132.057 119.967 130.724 119.4C129.224 118.767 127.807 118.1 126.474 117.4C125.14 116.667 123.957 115.85 122.924 114.95C121.924 114.017 121.124 112.95 120.524 111.75C119.957 110.55 119.674 109.133 119.674 107.5C119.674 106.533 119.857 105.517 120.224 104.45C120.59 103.35 121.19 102.333 122.024 101.4C122.89 100.467 124.04 99.7 125.474 99.1C126.907 98.5 128.69 98.2 130.824 98.2C132.157 98.2 133.607 98.4 135.174 98.8C136.774 99.1667 138.174 99.7833 139.374 100.65L139.174 98.55H142.624V110H139.824ZM150.218 134V131.25C151.151 131.217 151.868 131.067 152.368 130.8C152.868 130.5 153.218 130 153.418 129.3C153.618 128.567 153.718 127.567 153.718 126.3V106.35C153.718 105.517 153.735 104.717 153.768 103.95C153.835 103.183 153.885 102.583 153.918 102.15C153.351 102.183 152.701 102.217 151.968 102.25C151.235 102.25 150.651 102.267 150.218 102.3V99H163.518V101.75C162.618 101.783 161.901 101.95 161.368 102.25C160.868 102.517 160.518 103 160.318 103.7C160.118 104.4 160.018 105.4 160.018 106.7V114.5H163.668L168.318 106.85C168.818 105.95 169.385 105.033 170.018 104.1C170.651 103.167 171.235 102.5 171.768 102.1C171.235 102.133 170.685 102.167 170.118 102.2C169.551 102.2 169.051 102.217 168.618 102.25V99H180.368V101.75C179.435 101.817 178.501 101.983 177.568 102.25C176.635 102.517 175.701 103.05 174.768 103.85C173.835 104.617 172.868 105.8 171.868 107.4L167.018 115.15C167.785 115.617 168.435 116.133 168.968 116.7C169.535 117.267 170.051 117.867 170.518 118.5L175.818 125.85C176.685 127.017 177.485 128 178.218 128.8C178.985 129.6 179.718 130.2 180.418 130.6C181.151 131 181.885 131.217 182.618 131.25V134H175.468C175.168 133.967 174.718 133.683 174.118 133.15C173.551 132.617 172.935 131.967 172.268 131.2C171.635 130.4 171.051 129.65 170.518 128.95L165.218 121.45C164.718 120.75 164.185 120.067 163.618 119.4C163.051 118.7 162.518 118.167 162.018 117.8L160.018 117.85V126.55C160.018 127.45 160.001 128.283 159.968 129.05C159.935 129.817 159.885 130.417 159.818 130.85C160.385 130.817 161.035 130.783 161.768 130.75C162.501 130.717 163.085 130.7 163.518 130.7V134H150.218ZM210.919 110.2C210.519 107.3 209.536 105.1 207.969 103.6C206.402 102.067 204.369 101.3 201.869 101.3C200.102 101.3 198.519 101.7 197.119 102.5C195.752 103.267 194.586 104.333 193.619 105.7C192.686 107.033 191.969 108.6 191.469 110.4C190.969 112.167 190.719 114.067 190.719 116.1C190.719 119.067 191.186 121.683 192.119 123.95C193.086 126.217 194.419 128 196.119 129.3C197.852 130.6 199.869 131.25 202.169 131.25C204.302 131.25 206.402 130.733 208.469 129.7C210.569 128.633 212.302 127.133 213.669 125.2L215.719 127.05C214.152 129.183 212.486 130.817 210.719 131.95C208.952 133.05 207.219 133.8 205.519 134.2C203.852 134.6 202.336 134.8 200.969 134.8C198.402 134.8 196.069 134.35 193.969 133.45C191.902 132.517 190.102 131.25 188.569 129.65C187.069 128.017 185.902 126.133 185.069 124C184.269 121.833 183.869 119.5 183.869 117C183.869 114.7 184.219 112.433 184.919 110.2C185.652 107.967 186.736 105.95 188.169 104.15C189.636 102.35 191.469 100.917 193.669 99.85C195.869 98.75 198.419 98.2 201.319 98.2C202.786 98.2 204.319 98.4333 205.919 98.9C207.519 99.3333 209.019 99.9833 210.419 100.85L210.219 98.55H213.669V110.2H210.919ZM220.138 131.25C221.071 131.217 221.788 131.067 222.288 130.8C222.788 130.5 223.138 130 223.338 129.3C223.538 128.567 223.638 127.567 223.638 126.3V106.35C223.638 105.517 223.655 104.717 223.688 103.95C223.755 103.183 223.805 102.583 223.838 102.15C223.271 102.183 222.621 102.217 221.888 102.25C221.155 102.25 220.571 102.267 220.138 102.3V99L233.738 98.95C236.938 98.95 239.755 99.4 242.188 100.3C244.655 101.167 246.705 102.4 248.338 104C249.971 105.6 251.205 107.45 252.038 109.55C252.905 111.65 253.338 113.9 253.338 116.3C253.338 118.4 252.955 120.5 252.188 122.6C251.455 124.7 250.305 126.617 248.738 128.35C247.205 130.05 245.205 131.417 242.738 132.45C240.305 133.483 237.405 134 234.038 134H220.138V131.25ZM229.938 126.55C229.938 127.45 229.921 128.283 229.888 129.05C229.855 129.817 229.805 130.417 229.738 130.85C230.271 130.85 230.855 130.867 231.488 130.9C232.121 130.9 232.738 130.917 233.338 130.95C233.938 130.95 234.388 130.95 234.688 130.95C236.621 130.95 238.321 130.567 239.788 129.8C241.255 129.033 242.471 128 243.438 126.7C244.438 125.4 245.188 123.917 245.688 122.25C246.188 120.55 246.438 118.767 246.438 116.9C246.438 113.6 245.921 110.85 244.888 108.65C243.888 106.417 242.438 104.733 240.538 103.6C238.638 102.433 236.288 101.833 233.488 101.8C232.555 101.767 231.821 101.9 231.288 102.2C230.755 102.5 230.388 103 230.188 103.7C230.021 104.4 229.938 105.383 229.938 106.65V126.55ZM255.112 134V131.15C256.045 131.15 256.795 130.883 257.362 130.35C257.928 129.817 258.395 129.117 258.762 128.25C259.128 127.35 259.512 126.35 259.912 125.25L269.862 98.1H272.562L283.412 125.75C283.612 126.317 283.878 127.117 284.212 128.15C284.545 129.183 284.728 130.083 284.762 130.85C285.328 130.817 285.878 130.783 286.412 130.75C286.945 130.717 287.412 130.7 287.812 130.7V134H275.062V131.25C276.095 131.25 276.795 131.033 277.162 130.6C277.528 130.167 277.678 129.6 277.612 128.9C277.578 128.2 277.412 127.483 277.112 126.75L275.862 123.35L264.262 123.55L263.162 126.9C262.962 127.467 262.728 128.117 262.462 128.85C262.195 129.55 261.928 130.183 261.662 130.75C262.262 130.717 262.912 130.683 263.612 130.65C264.345 130.617 264.928 130.6 265.362 130.6V134H255.112ZM265.362 120.35H274.762L272.062 113C271.662 111.867 271.278 110.733 270.912 109.6C270.578 108.433 270.295 107.367 270.062 106.4H269.962C269.762 107.067 269.512 107.933 269.212 109C268.945 110.067 268.562 111.283 268.062 112.65L265.362 120.35Z" fill="url(#paint0_linear_412_404)"/>
<path d="M8.18971 156.36C8.10571 155.724 7.93171 155.172 7.66771 154.704C7.40371 154.224 7.04971 153.858 6.60571 153.606C6.17371 153.342 5.65171 153.21 5.03971 153.21C4.45171 153.21 3.95971 153.378 3.56371 153.714C3.17971 154.05 2.98771 154.464 2.98771 154.956C2.98771 155.364 3.10171 155.718 3.32971 156.018C3.56971 156.318 3.91171 156.594 4.35571 156.846C4.79971 157.086 5.32771 157.338 5.93971 157.602C6.39571 157.794 6.85771 158.01 7.32571 158.25C7.79371 158.478 8.22571 158.754 8.62171 159.078C9.01771 159.402 9.33571 159.78 9.57571 160.212C9.82771 160.632 9.95371 161.136 9.95371 161.724C9.95371 162.42 9.76771 163.038 9.39571 163.578C9.03571 164.118 8.51971 164.538 7.84771 164.838C7.17571 165.138 6.38371 165.288 5.47171 165.288C4.96771 165.288 4.43371 165.21 3.86971 165.054C3.30571 164.91 2.78971 164.688 2.32171 164.388L2.37571 165.162H1.15171L1.11571 161.076H2.14171C2.27371 162.096 2.65171 162.87 3.27571 163.398C3.89971 163.914 4.64971 164.172 5.52571 164.172C5.96971 164.172 6.36571 164.094 6.71371 163.938C7.06171 163.77 7.33171 163.548 7.52371 163.272C7.72771 162.984 7.82971 162.66 7.82971 162.3C7.82971 161.832 7.68571 161.448 7.39771 161.148C7.10971 160.848 6.74371 160.59 6.29971 160.374C5.85571 160.158 5.39371 159.948 4.91371 159.744C4.37371 159.516 3.86371 159.276 3.38371 159.024C2.90371 158.76 2.47771 158.466 2.10571 158.142C1.74571 157.806 1.45771 157.422 1.24171 156.99C1.03771 156.558 0.935711 156.048 0.935711 155.46C0.935711 155.112 1.00171 154.746 1.13371 154.362C1.26571 153.966 1.48171 153.6 1.78171 153.264C2.09371 152.928 2.50771 152.652 3.02371 152.436C3.53971 152.22 4.18171 152.112 4.94971 152.112C5.42971 152.112 5.95171 152.184 6.51571 152.328C7.09171 152.46 7.59571 152.682 8.02771 152.994L7.95571 152.238H9.19771V156.36H8.18971ZM16.5577 165C16.5217 164.82 16.4977 164.67 16.4857 164.55C16.4857 164.418 16.4797 164.268 16.4677 164.1C16.0597 164.508 15.6217 164.808 15.1537 165C14.6977 165.192 14.2237 165.288 13.7317 165.288C12.9157 165.288 12.2857 165.066 11.8417 164.622C11.4097 164.178 11.1937 163.632 11.1937 162.984C11.1937 162.408 11.3497 161.922 11.6617 161.526C11.9737 161.118 12.3817 160.788 12.8857 160.536C13.3897 160.272 13.9477 160.074 14.5597 159.942C15.1717 159.798 15.7777 159.72 16.3777 159.708V158.718C16.3777 158.37 16.3357 158.052 16.2517 157.764C16.1797 157.464 16.0417 157.23 15.8377 157.062C15.6337 156.882 15.3337 156.792 14.9377 156.792C14.6737 156.804 14.4037 156.864 14.1277 156.972C13.8637 157.068 13.6537 157.224 13.4977 157.44C13.5937 157.548 13.6537 157.668 13.6777 157.8C13.7017 157.92 13.7137 158.028 13.7137 158.124C13.7137 158.34 13.6297 158.568 13.4617 158.808C13.2937 159.036 13.0237 159.144 12.6517 159.132C12.3277 159.12 12.0757 159.006 11.8957 158.79C11.7277 158.574 11.6437 158.316 11.6437 158.016C11.6437 157.56 11.8057 157.164 12.1297 156.828C12.4657 156.48 12.9157 156.21 13.4797 156.018C14.0437 155.814 14.6737 155.712 15.3697 155.712C16.4017 155.712 17.1937 155.982 17.7457 156.522C18.2977 157.062 18.5677 157.926 18.5557 159.114C18.5557 159.534 18.5557 159.918 18.5557 160.266C18.5557 160.602 18.5497 160.944 18.5377 161.292C18.5377 161.628 18.5377 162.006 18.5377 162.426C18.5377 162.606 18.5317 162.834 18.5197 163.11C18.5077 163.374 18.4897 163.638 18.4657 163.902C18.6817 163.878 18.8977 163.866 19.1137 163.866C19.3417 163.854 19.5277 163.842 19.6717 163.83V165H16.5577ZM16.3597 160.77C15.9997 160.794 15.6457 160.854 15.2977 160.95C14.9497 161.034 14.6377 161.154 14.3617 161.31C14.0857 161.466 13.8637 161.664 13.6957 161.904C13.5397 162.132 13.4677 162.396 13.4797 162.696C13.4917 163.068 13.6117 163.344 13.8397 163.524C14.0677 163.692 14.3317 163.776 14.6317 163.776C14.9797 163.776 15.2917 163.704 15.5677 163.56C15.8557 163.416 16.1197 163.224 16.3597 162.984C16.3597 162.864 16.3597 162.738 16.3597 162.606C16.3597 162.474 16.3597 162.342 16.3597 162.21C16.3597 162.042 16.3597 161.832 16.3597 161.58C16.3597 161.328 16.3597 161.058 16.3597 160.77ZM24.7745 165.288C24.2225 165.288 23.7065 165.216 23.2265 165.072C22.7465 164.928 22.3625 164.754 22.0745 164.55L22.1285 165.126H20.9585L20.8685 162.03H21.8405C21.8765 162.438 22.0205 162.81 22.2725 163.146C22.5245 163.47 22.8485 163.728 23.2445 163.92C23.6525 164.1 24.1025 164.19 24.5945 164.19C24.8345 164.19 25.0625 164.154 25.2785 164.082C25.5065 164.01 25.6925 163.896 25.8365 163.74C25.9925 163.572 26.0705 163.362 26.0705 163.11C26.0705 162.846 25.9805 162.63 25.8005 162.462C25.6325 162.294 25.3925 162.138 25.0805 161.994C24.7685 161.85 24.4025 161.7 23.9825 161.544C23.6105 161.4 23.2385 161.25 22.8665 161.094C22.4945 160.938 22.1525 160.752 21.8405 160.536C21.5285 160.308 21.2765 160.032 21.0845 159.708C20.8925 159.384 20.7965 158.988 20.7965 158.52C20.7965 158.196 20.8565 157.872 20.9765 157.548C21.0965 157.224 21.2885 156.924 21.5525 156.648C21.8165 156.36 22.1525 156.132 22.5605 155.964C22.9805 155.796 23.4905 155.712 24.0905 155.712C24.4145 155.712 24.7805 155.766 25.1885 155.874C25.5965 155.97 25.9565 156.138 26.2685 156.378L26.2505 155.802H27.4205V158.97H26.4485C26.3885 158.55 26.2565 158.178 26.0525 157.854C25.8485 157.518 25.5785 157.254 25.2425 157.062C24.9065 156.87 24.5045 156.774 24.0365 156.774C23.6525 156.774 23.3285 156.87 23.0645 157.062C22.8005 157.242 22.6685 157.512 22.6685 157.872C22.6685 158.172 22.7705 158.418 22.9745 158.61C23.1785 158.802 23.4545 158.964 23.8025 159.096C24.1505 159.228 24.5285 159.372 24.9365 159.528C25.5005 159.72 26.0105 159.948 26.4665 160.212C26.9345 160.476 27.3065 160.794 27.5825 161.166C27.8585 161.538 27.9965 162 27.9965 162.552C27.9965 163.176 27.8405 163.692 27.5285 164.1C27.2165 164.496 26.8145 164.796 26.3225 165C25.8305 165.192 25.3145 165.288 24.7745 165.288ZM29.1222 165V164.046C29.4702 164.046 29.7162 163.974 29.8602 163.83C30.0162 163.674 30.1122 163.458 30.1482 163.182C30.1842 162.906 30.2022 162.594 30.2022 162.246V154.47C30.2022 154.266 30.2082 154.044 30.2202 153.804C30.2322 153.552 30.2502 153.294 30.2742 153.03C30.0702 153.042 29.8482 153.054 29.6082 153.066C29.3682 153.078 29.1642 153.09 28.9962 153.102V151.932C29.5482 151.932 29.9982 151.908 30.3462 151.86C30.6942 151.8 30.9642 151.728 31.1562 151.644C31.3602 151.56 31.5042 151.482 31.5882 151.41H32.4162V159.726H33.2262L34.8282 157.962C34.9962 157.782 35.1402 157.626 35.2602 157.494C35.3922 157.35 35.5242 157.23 35.6562 157.134L34.6122 157.152V156H38.3922V156.954C37.9842 156.99 37.6122 157.098 37.2762 157.278C36.9402 157.446 36.6462 157.644 36.3942 157.872C36.1422 158.1 35.9202 158.316 35.7282 158.52L34.5042 159.888C34.6962 159.972 34.8762 160.098 35.0442 160.266C35.2242 160.434 35.4282 160.662 35.6562 160.95L36.8802 162.552C36.9522 162.636 37.0482 162.762 37.1682 162.93C37.3002 163.086 37.4442 163.254 37.6002 163.434C37.7682 163.602 37.9482 163.746 38.1402 163.866C38.3322 163.986 38.5242 164.046 38.7162 164.046V165H36.7902C36.4182 165 36.0822 164.856 35.7822 164.568C35.4942 164.268 35.1702 163.878 34.8102 163.398C34.5702 163.062 34.3302 162.726 34.0902 162.39C33.8502 162.042 33.6282 161.73 33.4242 161.454C33.2322 161.166 33.0702 160.944 32.9382 160.788L32.4162 160.806V162.426C32.4162 162.618 32.4102 162.852 32.3982 163.128C32.3862 163.392 32.3682 163.65 32.3442 163.902C32.5362 163.878 32.7402 163.866 32.9562 163.866C33.1722 163.854 33.3582 163.848 33.5142 163.848V165H29.1222ZM44.8409 165C44.8049 164.82 44.7809 164.67 44.7689 164.55C44.7689 164.418 44.7629 164.268 44.7509 164.1C44.3429 164.508 43.9049 164.808 43.4369 165C42.9809 165.192 42.5069 165.288 42.0149 165.288C41.1989 165.288 40.5689 165.066 40.1249 164.622C39.6929 164.178 39.4769 163.632 39.4769 162.984C39.4769 162.408 39.6329 161.922 39.9449 161.526C40.2569 161.118 40.6649 160.788 41.1689 160.536C41.6729 160.272 42.2309 160.074 42.8429 159.942C43.4549 159.798 44.0609 159.72 44.6609 159.708V158.718C44.6609 158.37 44.6189 158.052 44.5349 157.764C44.4629 157.464 44.3249 157.23 44.1209 157.062C43.9169 156.882 43.6169 156.792 43.2209 156.792C42.9569 156.804 42.6869 156.864 42.4109 156.972C42.1469 157.068 41.9369 157.224 41.7809 157.44C41.8769 157.548 41.9369 157.668 41.9609 157.8C41.9849 157.92 41.9969 158.028 41.9969 158.124C41.9969 158.34 41.9129 158.568 41.7449 158.808C41.5769 159.036 41.3069 159.144 40.9349 159.132C40.6109 159.12 40.3589 159.006 40.1789 158.79C40.0109 158.574 39.9269 158.316 39.9269 158.016C39.9269 157.56 40.0889 157.164 40.4129 156.828C40.7489 156.48 41.1989 156.21 41.7629 156.018C42.3269 155.814 42.9569 155.712 43.6529 155.712C44.6849 155.712 45.4769 155.982 46.0289 156.522C46.5809 157.062 46.8509 157.926 46.8389 159.114C46.8389 159.534 46.8389 159.918 46.8389 160.266C46.8389 160.602 46.8329 160.944 46.8209 161.292C46.8209 161.628 46.8209 162.006 46.8209 162.426C46.8209 162.606 46.8149 162.834 46.8029 163.11C46.7909 163.374 46.7729 163.638 46.7489 163.902C46.9649 163.878 47.1809 163.866 47.3969 163.866C47.6249 163.854 47.8109 163.842 47.9549 163.83V165H44.8409ZM44.6429 160.77C44.2829 160.794 43.9289 160.854 43.5809 160.95C43.2329 161.034 42.9209 161.154 42.6449 161.31C42.3689 161.466 42.1469 161.664 41.9789 161.904C41.8229 162.132 41.7509 162.396 41.7629 162.696C41.7749 163.068 41.8949 163.344 42.1229 163.524C42.3509 163.692 42.6149 163.776 42.9149 163.776C43.2629 163.776 43.5749 163.704 43.8509 163.56C44.1389 163.416 44.4029 163.224 44.6429 162.984C44.6429 162.864 44.6429 162.738 44.6429 162.606C44.6429 162.474 44.6429 162.342 44.6429 162.21C44.6429 162.042 44.6429 161.832 44.6429 161.58C44.6429 161.328 44.6429 161.058 44.6429 160.77ZM52.4838 165.288C52.1478 165.288 51.8178 165.246 51.4938 165.162C51.1818 165.078 50.8938 164.922 50.6298 164.694C50.3778 164.466 50.1738 164.13 50.0178 163.686C49.8618 163.23 49.7838 162.63 49.7838 161.886L49.8198 157.242L48.5418 157.26V156C48.9018 155.988 49.2498 155.868 49.5858 155.64C49.9218 155.4 50.2158 155.088 50.4678 154.704C50.7198 154.32 50.8878 153.912 50.9718 153.48H52.0698L52.0518 156H54.5898V157.152L52.0518 157.206L52.0338 161.832C52.0338 162.192 52.0638 162.528 52.1238 162.84C52.1958 163.14 52.3158 163.38 52.4838 163.56C52.6638 163.74 52.9038 163.83 53.2038 163.83C53.4318 163.83 53.6898 163.758 53.9778 163.614C54.2778 163.47 54.5778 163.182 54.8778 162.75L55.6158 163.416C55.3158 163.872 55.0038 164.226 54.6798 164.478C54.3678 164.73 54.0618 164.916 53.7618 165.036C53.4738 165.156 53.2158 165.228 52.9878 165.252C52.7598 165.276 52.5918 165.288 52.4838 165.288ZM60.5531 165.288C59.7491 165.288 59.0051 165.108 58.3211 164.748C57.6491 164.388 57.1091 163.866 56.7011 163.182C56.3051 162.486 56.1071 161.652 56.1071 160.68C56.1071 160.02 56.2211 159.396 56.4491 158.808C56.6771 158.208 56.9951 157.68 57.4031 157.224C57.8231 156.756 58.3211 156.39 58.8971 156.126C59.4731 155.85 60.1091 155.712 60.8051 155.712C61.5371 155.712 62.1551 155.826 62.6591 156.054C63.1631 156.27 63.5471 156.564 63.8111 156.936C64.0751 157.296 64.2071 157.68 64.2071 158.088C64.2071 158.412 64.1111 158.694 63.9191 158.934C63.7391 159.174 63.4751 159.3 63.1271 159.312C62.7191 159.324 62.4311 159.21 62.2631 158.97C62.1071 158.718 62.0291 158.484 62.0291 158.268C62.0291 158.148 62.0471 158.022 62.0831 157.89C62.1191 157.746 62.1791 157.614 62.2631 157.494C62.1791 157.278 62.0411 157.122 61.8491 157.026C61.6571 156.918 61.4591 156.846 61.2551 156.81C61.0511 156.774 60.8891 156.762 60.7691 156.774C60.1091 156.798 59.5631 157.098 59.1311 157.674C58.6991 158.25 58.4831 159.09 58.4831 160.194C58.4831 160.854 58.5731 161.466 58.7531 162.03C58.9451 162.582 59.2331 163.032 59.6171 163.38C60.0011 163.716 60.4931 163.89 61.0931 163.902C61.6211 163.914 62.1311 163.788 62.6231 163.524C63.1151 163.248 63.5171 162.894 63.8291 162.462L64.5491 163.128C64.1531 163.692 63.7271 164.13 63.2711 164.442C62.8151 164.754 62.3531 164.97 61.8851 165.09C61.4291 165.222 60.9851 165.288 60.5531 165.288ZM71.181 164.046C71.529 164.046 71.775 163.974 71.919 163.83C72.063 163.674 72.153 163.458 72.189 163.182C72.225 162.906 72.243 162.594 72.243 162.246V159.69C72.243 158.826 72.105 158.184 71.829 157.764C71.565 157.344 71.151 157.134 70.587 157.134C70.239 157.134 69.891 157.212 69.543 157.368C69.207 157.524 68.931 157.716 68.715 157.944V162.426C68.715 162.618 68.709 162.852 68.697 163.128C68.685 163.392 68.661 163.65 68.625 163.902C68.829 163.878 69.039 163.866 69.255 163.866C69.471 163.854 69.651 163.848 69.795 163.848V165H65.421V164.046C65.769 164.046 66.015 163.974 66.159 163.83C66.315 163.674 66.405 163.458 66.429 163.182C66.465 162.906 66.483 162.594 66.483 162.246V154.47C66.483 154.266 66.489 154.044 66.501 153.804C66.513 153.552 66.531 153.294 66.555 153.03C66.351 153.042 66.129 153.054 65.889 153.066C65.649 153.078 65.451 153.09 65.295 153.102V151.932C65.847 151.932 66.297 151.908 66.645 151.86C66.993 151.8 67.263 151.728 67.455 151.644C67.659 151.56 67.803 151.482 67.887 151.41H68.715V156.774C68.955 156.57 69.231 156.39 69.543 156.234C69.867 156.078 70.197 155.952 70.533 155.856C70.869 155.76 71.175 155.712 71.451 155.712C72.531 155.712 73.299 156.03 73.755 156.666C74.211 157.302 74.445 158.316 74.457 159.708L74.475 162.426C74.475 162.618 74.469 162.852 74.457 163.128C74.445 163.392 74.427 163.65 74.403 163.902C74.595 163.878 74.793 163.866 74.997 163.866C75.213 163.854 75.399 163.848 75.555 163.848V165H71.181V164.046ZM81.0316 165.288C80.1676 165.288 79.3996 165.096 78.7276 164.712C78.0556 164.316 77.5336 163.764 77.1616 163.056C76.7896 162.336 76.6036 161.49 76.6036 160.518C76.6036 159.678 76.7896 158.892 77.1616 158.16C77.5336 157.428 78.0556 156.84 78.7276 156.396C79.4116 155.94 80.2036 155.712 81.1036 155.712C81.6076 155.712 82.0936 155.784 82.5616 155.928C83.0296 156.072 83.4496 156.312 83.8216 156.648C84.1936 156.984 84.4876 157.428 84.7036 157.98C84.9316 158.532 85.0396 159.204 85.0276 159.996L78.9796 160.104C78.9796 160.848 79.0636 161.508 79.2316 162.084C79.4116 162.648 79.6996 163.098 80.0956 163.434C80.4916 163.758 81.0136 163.92 81.6616 163.92C81.9496 163.92 82.2556 163.872 82.5796 163.776C82.9156 163.668 83.2456 163.512 83.5696 163.308C83.8936 163.092 84.1816 162.828 84.4336 162.516L85.1176 163.146C84.7216 163.722 84.2836 164.166 83.8036 164.478C83.3236 164.79 82.8436 165 82.3636 165.108C81.8836 165.228 81.4396 165.288 81.0316 165.288ZM79.0696 159.024H82.8136C82.8016 158.544 82.7296 158.142 82.5976 157.818C82.4776 157.482 82.2976 157.23 82.0576 157.062C81.8176 156.882 81.5236 156.792 81.1756 156.792C80.5876 156.792 80.1136 156.99 79.7536 157.386C79.4056 157.77 79.1776 158.316 79.0696 159.024ZM89.2772 165.054L87.0272 158.592C86.9312 158.292 86.8532 158.064 86.7932 157.908C86.7332 157.74 86.6912 157.602 86.6672 157.494C86.6432 157.374 86.6132 157.248 86.5772 157.116L85.7852 157.152V156H89.9432V156.954C89.5112 156.966 89.2652 157.122 89.2052 157.422C89.1572 157.722 89.1932 158.094 89.3132 158.538L89.9972 160.842C90.0812 161.106 90.1592 161.388 90.2312 161.688C90.3152 161.976 90.3872 162.264 90.4472 162.552C90.5192 162.276 90.5972 161.988 90.6812 161.688C90.7652 161.376 90.8672 161.016 90.9872 160.608L92.4092 156H93.9572L95.5232 161.058C95.6072 161.31 95.6912 161.58 95.7752 161.868C95.8592 162.156 95.9372 162.426 96.0092 162.678C96.0692 162.438 96.1412 162.18 96.2252 161.904C96.3092 161.616 96.3932 161.352 96.4772 161.112L97.3412 158.448C97.4252 158.16 97.5032 157.908 97.5752 157.692C97.6592 157.476 97.7552 157.278 97.8632 157.098L96.8372 157.152V156H100.149V156.954C99.8852 156.954 99.6572 157.02 99.4652 157.152C99.2852 157.272 99.1292 157.428 98.9972 157.62C98.8652 157.812 98.7572 158.004 98.6732 158.196C98.5892 158.388 98.5232 158.562 98.4752 158.718L96.2432 165.054H94.7312L93.3272 160.86C93.2792 160.704 93.2132 160.506 93.1292 160.266C93.0572 160.026 92.9852 159.774 92.9132 159.51C92.8412 159.246 92.7692 158.994 92.6972 158.754C92.6252 159.042 92.5352 159.366 92.4272 159.726C92.3312 160.086 92.2352 160.422 92.1392 160.734C92.0432 161.046 91.9652 161.28 91.9052 161.436L90.6812 165.054H89.2772ZM106.013 165C105.977 164.82 105.953 164.67 105.941 164.55C105.941 164.418 105.935 164.268 105.923 164.1C105.515 164.508 105.077 164.808 104.609 165C104.153 165.192 103.679 165.288 103.187 165.288C102.371 165.288 101.741 165.066 101.297 164.622C100.865 164.178 100.649 163.632 100.649 162.984C100.649 162.408 100.805 161.922 101.117 161.526C101.429 161.118 101.837 160.788 102.341 160.536C102.845 160.272 103.403 160.074 104.015 159.942C104.627 159.798 105.233 159.72 105.833 159.708V158.718C105.833 158.37 105.791 158.052 105.707 157.764C105.635 157.464 105.497 157.23 105.293 157.062C105.089 156.882 104.789 156.792 104.393 156.792C104.129 156.804 103.859 156.864 103.583 156.972C103.319 157.068 103.109 157.224 102.953 157.44C103.049 157.548 103.109 157.668 103.133 157.8C103.157 157.92 103.169 158.028 103.169 158.124C103.169 158.34 103.085 158.568 102.917 158.808C102.749 159.036 102.479 159.144 102.107 159.132C101.783 159.12 101.531 159.006 101.351 158.79C101.183 158.574 101.099 158.316 101.099 158.016C101.099 157.56 101.261 157.164 101.585 156.828C101.921 156.48 102.371 156.21 102.935 156.018C103.499 155.814 104.129 155.712 104.825 155.712C105.857 155.712 106.649 155.982 107.201 156.522C107.753 157.062 108.023 157.926 108.011 159.114C108.011 159.534 108.011 159.918 108.011 160.266C108.011 160.602 108.005 160.944 107.993 161.292C107.993 161.628 107.993 162.006 107.993 162.426C107.993 162.606 107.987 162.834 107.975 163.11C107.963 163.374 107.945 163.638 107.921 163.902C108.137 163.878 108.353 163.866 108.569 163.866C108.797 163.854 108.983 163.842 109.127 163.83V165H106.013ZM105.815 160.77C105.455 160.794 105.101 160.854 104.753 160.95C104.405 161.034 104.093 161.154 103.817 161.31C103.541 161.466 103.319 161.664 103.151 161.904C102.995 162.132 102.923 162.396 102.935 162.696C102.947 163.068 103.067 163.344 103.295 163.524C103.523 163.692 103.787 163.776 104.087 163.776C104.435 163.776 104.747 163.704 105.023 163.56C105.311 163.416 105.575 163.224 105.815 162.984C105.815 162.864 105.815 162.738 105.815 162.606C105.815 162.474 105.815 162.342 105.815 162.21C105.815 162.042 105.815 161.832 105.815 161.58C105.815 161.328 105.815 161.058 105.815 160.77ZM110.234 165V164.046C110.582 164.046 110.828 163.974 110.972 163.83C111.116 163.674 111.206 163.458 111.242 163.182C111.278 162.906 111.296 162.594 111.296 162.246V158.862C111.296 158.646 111.302 158.418 111.314 158.178C111.326 157.938 111.344 157.692 111.368 157.44C111.176 157.452 110.954 157.464 110.702 157.476C110.462 157.488 110.264 157.5 110.108 157.512V156.342C110.648 156.342 111.092 156.318 111.44 156.27C111.788 156.21 112.058 156.138 112.25 156.054C112.442 155.97 112.58 155.892 112.664 155.82H113.42C113.444 155.952 113.456 156.06 113.456 156.144C113.456 156.228 113.462 156.318 113.474 156.414C113.486 156.498 113.504 156.624 113.528 156.792C113.768 156.588 114.044 156.408 114.356 156.252C114.68 156.084 115.004 155.952 115.328 155.856C115.652 155.76 115.952 155.712 116.228 155.712C117.308 155.712 118.082 156.03 118.55 156.666C119.018 157.302 119.252 158.316 119.252 159.708V162.426C119.252 162.618 119.246 162.852 119.234 163.128C119.234 163.392 119.216 163.65 119.18 163.902C119.384 163.878 119.594 163.866 119.81 163.866C120.026 163.854 120.206 163.848 120.35 163.848V165H115.976V164.046C116.324 164.046 116.57 163.974 116.714 163.83C116.87 163.674 116.966 163.458 117.002 163.182C117.038 162.906 117.056 162.594 117.056 162.246L117.038 159.69C117.038 158.826 116.906 158.184 116.642 157.764C116.39 157.332 115.97 157.116 115.382 157.116C115.034 157.128 114.692 157.212 114.356 157.368C114.02 157.524 113.738 157.722 113.51 157.962C113.522 158.106 113.528 158.256 113.528 158.412C113.528 158.568 113.528 158.724 113.528 158.88L113.51 162.426C113.51 162.618 113.504 162.852 113.492 163.128C113.492 163.392 113.474 163.65 113.438 163.902C113.63 163.878 113.834 163.866 114.05 163.866C114.278 163.854 114.464 163.848 114.608 163.848V165H110.234ZM135.914 156.432C135.77 155.388 135.416 154.596 134.852 154.056C134.288 153.504 133.556 153.228 132.656 153.228C132.02 153.228 131.45 153.372 130.946 153.66C130.454 153.936 130.034 154.32 129.686 154.812C129.35 155.292 129.092 155.856 128.912 156.504C128.732 157.14 128.642 157.824 128.642 158.556C128.642 159.624 128.81 160.566 129.146 161.382C129.494 162.198 129.974 162.84 130.586 163.308C131.21 163.776 131.936 164.01 132.764 164.01C133.532 164.01 134.288 163.824 135.032 163.452C135.788 163.068 136.412 162.528 136.904 161.832L137.642 162.498C137.078 163.266 136.478 163.854 135.842 164.262C135.206 164.658 134.582 164.928 133.97 165.072C133.37 165.216 132.824 165.288 132.332 165.288C131.408 165.288 130.568 165.126 129.812 164.802C129.068 164.466 128.42 164.01 127.868 163.434C127.328 162.846 126.908 162.168 126.608 161.4C126.32 160.62 126.176 159.78 126.176 158.88C126.176 158.052 126.302 157.236 126.554 156.432C126.818 155.628 127.208 154.902 127.724 154.254C128.252 153.606 128.912 153.09 129.704 152.706C130.496 152.31 131.414 152.112 132.458 152.112C132.986 152.112 133.538 152.196 134.114 152.364C134.69 152.52 135.23 152.754 135.734 153.066L135.662 152.238H136.904V156.432H135.914ZM143.859 165C143.823 164.82 143.799 164.67 143.787 164.55C143.787 164.418 143.781 164.268 143.769 164.1C143.361 164.508 142.923 164.808 142.455 165C141.999 165.192 141.525 165.288 141.033 165.288C140.217 165.288 139.587 165.066 139.143 164.622C138.711 164.178 138.495 163.632 138.495 162.984C138.495 162.408 138.651 161.922 138.963 161.526C139.275 161.118 139.683 160.788 140.187 160.536C140.691 160.272 141.249 160.074 141.861 159.942C142.473 159.798 143.079 159.72 143.679 159.708V158.718C143.679 158.37 143.637 158.052 143.553 157.764C143.481 157.464 143.343 157.23 143.139 157.062C142.935 156.882 142.635 156.792 142.239 156.792C141.975 156.804 141.705 156.864 141.429 156.972C141.165 157.068 140.955 157.224 140.799 157.44C140.895 157.548 140.955 157.668 140.979 157.8C141.003 157.92 141.015 158.028 141.015 158.124C141.015 158.34 140.931 158.568 140.763 158.808C140.595 159.036 140.325 159.144 139.953 159.132C139.629 159.12 139.377 159.006 139.197 158.79C139.029 158.574 138.945 158.316 138.945 158.016C138.945 157.56 139.107 157.164 139.431 156.828C139.767 156.48 140.217 156.21 140.781 156.018C141.345 155.814 141.975 155.712 142.671 155.712C143.703 155.712 144.495 155.982 145.047 156.522C145.599 157.062 145.869 157.926 145.857 159.114C145.857 159.534 145.857 159.918 145.857 160.266C145.857 160.602 145.851 160.944 145.839 161.292C145.839 161.628 145.839 162.006 145.839 162.426C145.839 162.606 145.833 162.834 145.821 163.11C145.809 163.374 145.791 163.638 145.767 163.902C145.983 163.878 146.199 163.866 146.415 163.866C146.643 163.854 146.829 163.842 146.973 163.83V165H143.859ZM143.661 160.77C143.301 160.794 142.947 160.854 142.599 160.95C142.251 161.034 141.939 161.154 141.663 161.31C141.387 161.466 141.165 161.664 140.997 161.904C140.841 162.132 140.769 162.396 140.781 162.696C140.793 163.068 140.913 163.344 141.141 163.524C141.369 163.692 141.633 163.776 141.933 163.776C142.281 163.776 142.593 163.704 142.869 163.56C143.157 163.416 143.421 163.224 143.661 162.984C143.661 162.864 143.661 162.738 143.661 162.606C143.661 162.474 143.661 162.342 143.661 162.21C143.661 162.042 143.661 161.832 143.661 161.58C143.661 161.328 143.661 161.058 143.661 160.77ZM148.079 164.046C148.427 164.046 148.673 163.974 148.817 163.83C148.961 163.674 149.051 163.458 149.087 163.182C149.123 162.906 149.141 162.594 149.141 162.246V158.862C149.141 158.646 149.147 158.418 149.159 158.178C149.171 157.938 149.189 157.692 149.213 157.44C149.009 157.452 148.787 157.464 148.547 157.476C148.307 157.476 148.109 157.482 147.953 157.494V156.342H148.619C149.099 156.342 149.501 156.288 149.825 156.18C150.149 156.06 150.377 155.94 150.509 155.82H151.265C151.289 155.964 151.307 156.192 151.319 156.504C151.331 156.816 151.337 157.128 151.337 157.44C151.613 157.08 151.901 156.774 152.201 156.522C152.501 156.258 152.807 156.06 153.119 155.928C153.443 155.784 153.773 155.712 154.109 155.712C154.493 155.712 154.829 155.82 155.117 156.036C155.417 156.252 155.567 156.6 155.567 157.08C155.567 157.236 155.525 157.404 155.441 157.584C155.369 157.764 155.249 157.914 155.081 158.034C154.925 158.154 154.709 158.214 154.433 158.214C154.181 158.214 153.941 158.136 153.713 157.98C153.497 157.812 153.383 157.548 153.371 157.188C153.119 157.176 152.855 157.266 152.579 157.458C152.315 157.65 152.075 157.884 151.859 158.16C151.643 158.436 151.475 158.718 151.355 159.006L151.373 162.426C151.373 162.618 151.367 162.852 151.355 163.128C151.343 163.392 151.325 163.65 151.301 163.902C151.493 163.878 151.697 163.866 151.913 163.866C152.129 163.854 152.309 163.848 152.453 163.848V165H148.079V164.046ZM160.59 165.288C159.726 165.288 158.958 165.096 158.286 164.712C157.614 164.316 157.092 163.764 156.72 163.056C156.348 162.336 156.162 161.49 156.162 160.518C156.162 159.678 156.348 158.892 156.72 158.16C157.092 157.428 157.614 156.84 158.286 156.396C158.97 155.94 159.762 155.712 160.662 155.712C161.166 155.712 161.652 155.784 162.12 155.928C162.588 156.072 163.008 156.312 163.38 156.648C163.752 156.984 164.046 157.428 164.262 157.98C164.49 158.532 164.598 159.204 164.586 159.996L158.538 160.104C158.538 160.848 158.622 161.508 158.79 162.084C158.97 162.648 159.258 163.098 159.654 163.434C160.05 163.758 160.572 163.92 161.22 163.92C161.508 163.92 161.814 163.872 162.138 163.776C162.474 163.668 162.804 163.512 163.128 163.308C163.452 163.092 163.74 162.828 163.992 162.516L164.676 163.146C164.28 163.722 163.842 164.166 163.362 164.478C162.882 164.79 162.402 165 161.922 165.108C161.442 165.228 160.998 165.288 160.59 165.288ZM158.628 159.024H162.372C162.36 158.544 162.288 158.142 162.156 157.818C162.036 157.482 161.856 157.23 161.616 157.062C161.376 156.882 161.082 156.792 160.734 156.792C160.146 156.792 159.672 156.99 159.312 157.386C158.964 157.77 158.736 158.316 158.628 159.024ZM170.258 165.288C169.394 165.288 168.626 165.096 167.954 164.712C167.282 164.316 166.76 163.764 166.388 163.056C166.016 162.336 165.83 161.49 165.83 160.518C165.83 159.678 166.016 158.892 166.388 158.16C166.76 157.428 167.282 156.84 167.954 156.396C168.638 155.94 169.43 155.712 170.33 155.712C170.834 155.712 171.32 155.784 171.788 155.928C172.256 156.072 172.676 156.312 173.048 156.648C173.42 156.984 173.714 157.428 173.93 157.98C174.158 158.532 174.266 159.204 174.254 159.996L168.206 160.104C168.206 160.848 168.29 161.508 168.458 162.084C168.638 162.648 168.926 163.098 169.322 163.434C169.718 163.758 170.24 163.92 170.888 163.92C171.176 163.92 171.482 163.872 171.806 163.776C172.142 163.668 172.472 163.512 172.796 163.308C173.12 163.092 173.408 162.828 173.66 162.516L174.344 163.146C173.948 163.722 173.51 164.166 173.03 164.478C172.55 164.79 172.07 165 171.59 165.108C171.11 165.228 170.666 165.288 170.258 165.288ZM168.296 159.024H172.04C172.028 158.544 171.956 158.142 171.824 157.818C171.704 157.482 171.524 157.23 171.284 157.062C171.044 156.882 170.75 156.792 170.402 156.792C169.814 156.792 169.34 156.99 168.98 157.386C168.632 157.77 168.404 158.316 168.296 159.024ZM175.659 164.046C176.007 164.046 176.253 163.974 176.397 163.83C176.541 163.674 176.631 163.458 176.667 163.182C176.703 162.906 176.721 162.594 176.721 162.246V158.862C176.721 158.646 176.727 158.418 176.739 158.178C176.751 157.938 176.769 157.692 176.793 157.44C176.589 157.452 176.367 157.464 176.127 157.476C175.887 157.476 175.689 157.482 175.533 157.494V156.342H176.199C176.679 156.342 177.081 156.288 177.405 156.18C177.729 156.06 177.957 155.94 178.089 155.82H178.845C178.869 155.964 178.887 156.192 178.899 156.504C178.911 156.816 178.917 157.128 178.917 157.44C179.193 157.08 179.481 156.774 179.781 156.522C180.081 156.258 180.387 156.06 180.699 155.928C181.023 155.784 181.353 155.712 181.689 155.712C182.073 155.712 182.409 155.82 182.697 156.036C182.997 156.252 183.147 156.6 183.147 157.08C183.147 157.236 183.105 157.404 183.021 157.584C182.949 157.764 182.829 157.914 182.661 158.034C182.505 158.154 182.289 158.214 182.013 158.214C181.761 158.214 181.521 158.136 181.293 157.98C181.077 157.812 180.963 157.548 180.951 157.188C180.699 157.176 180.435 157.266 180.159 157.458C179.895 157.65 179.655 157.884 179.439 158.16C179.223 158.436 179.055 158.718 178.935 159.006L178.953 162.426C178.953 162.618 178.947 162.852 178.935 163.128C178.923 163.392 178.905 163.65 178.881 163.902C179.073 163.878 179.277 163.866 179.493 163.866C179.709 163.854 179.889 163.848 180.033 163.848V165H175.659V164.046ZM188.917 164.01C189.253 163.998 189.511 163.944 189.691 163.848C189.871 163.74 189.997 163.56 190.069 163.308C190.141 163.044 190.177 162.684 190.177 162.228V155.046C190.177 154.746 190.183 154.458 190.195 154.182C190.219 153.906 190.237 153.69 190.249 153.534C190.045 153.546 189.811 153.558 189.547 153.57C189.283 153.57 189.073 153.576 188.917 153.588V152.4L193.813 152.382C194.965 152.382 195.979 152.544 196.855 152.868C197.743 153.18 198.481 153.624 199.069 154.2C199.657 154.776 200.101 155.442 200.401 156.198C200.713 156.954 200.869 157.764 200.869 158.628C200.869 159.384 200.731 160.14 200.455 160.896C200.191 161.652 199.777 162.342 199.213 162.966C198.661 163.578 197.941 164.07 197.053 164.442C196.177 164.814 195.133 165 193.921 165H188.917V164.01ZM192.445 162.318C192.445 162.642 192.439 162.942 192.427 163.218C192.415 163.494 192.397 163.71 192.373 163.866C192.565 163.866 192.775 163.872 193.003 163.884C193.231 163.884 193.453 163.89 193.669 163.902C193.885 163.902 194.047 163.902 194.155 163.902C194.851 163.902 195.463 163.764 195.991 163.488C196.519 163.212 196.957 162.84 197.305 162.372C197.665 161.904 197.935 161.37 198.115 160.77C198.295 160.158 198.385 159.516 198.385 158.844C198.385 157.656 198.199 156.666 197.827 155.874C197.467 155.07 196.945 154.464 196.261 154.056C195.577 153.636 194.731 153.42 193.723 153.408C193.387 153.396 193.123 153.444 192.931 153.552C192.739 153.66 192.607 153.84 192.535 154.092C192.475 154.344 192.445 154.698 192.445 155.154V162.318ZM206.61 165.288C205.746 165.288 204.978 165.096 204.306 164.712C203.634 164.316 203.112 163.764 202.74 163.056C202.368 162.336 202.182 161.49 202.182 160.518C202.182 159.678 202.368 158.892 202.74 158.16C203.112 157.428 203.634 156.84 204.306 156.396C204.99 155.94 205.782 155.712 206.682 155.712C207.186 155.712 207.672 155.784 208.14 155.928C208.608 156.072 209.028 156.312 209.4 156.648C209.772 156.984 210.066 157.428 210.282 157.98C210.51 158.532 210.618 159.204 210.606 159.996L204.558 160.104C204.558 160.848 204.642 161.508 204.81 162.084C204.99 162.648 205.278 163.098 205.674 163.434C206.07 163.758 206.592 163.92 207.24 163.92C207.528 163.92 207.834 163.872 208.158 163.776C208.494 163.668 208.824 163.512 209.148 163.308C209.472 163.092 209.76 162.828 210.012 162.516L210.696 163.146C210.3 163.722 209.862 164.166 209.382 164.478C208.902 164.79 208.422 165 207.942 165.108C207.462 165.228 207.018 165.288 206.61 165.288ZM204.648 159.024H208.392C208.38 158.544 208.308 158.142 208.176 157.818C208.056 157.482 207.876 157.23 207.636 157.062C207.396 156.882 207.102 156.792 206.754 156.792C206.166 156.792 205.692 156.99 205.332 157.386C204.984 157.77 204.756 158.316 204.648 159.024ZM215.342 165.054L212.588 158.934C212.444 158.586 212.336 158.304 212.264 158.088C212.192 157.872 212.138 157.692 212.102 157.548C212.078 157.404 212.054 157.26 212.03 157.116L211.328 157.152V156H215.234V156.954C214.946 156.954 214.754 157.032 214.658 157.188C214.574 157.332 214.55 157.53 214.586 157.782C214.634 158.022 214.712 158.28 214.82 158.556L215.9 161.148C215.996 161.364 216.092 161.592 216.188 161.832C216.284 162.06 216.374 162.294 216.458 162.534H216.476C216.56 162.306 216.644 162.078 216.728 161.85C216.824 161.61 216.908 161.37 216.98 161.13L217.97 158.358C218.078 158.058 218.18 157.812 218.276 157.62C218.372 157.428 218.462 157.254 218.546 157.098L217.43 157.152V156H220.652V156.954C220.376 156.978 220.136 157.11 219.932 157.35C219.728 157.578 219.548 157.86 219.392 158.196C219.236 158.52 219.092 158.856 218.96 159.204L216.638 165.054H215.342ZM225.594 165.288C224.73 165.288 223.962 165.096 223.29 164.712C222.618 164.316 222.096 163.764 221.724 163.056C221.352 162.336 221.166 161.49 221.166 160.518C221.166 159.678 221.352 158.892 221.724 158.16C222.096 157.428 222.618 156.84 223.29 156.396C223.974 155.94 224.766 155.712 225.666 155.712C226.17 155.712 226.656 155.784 227.124 155.928C227.592 156.072 228.012 156.312 228.384 156.648C228.756 156.984 229.05 157.428 229.266 157.98C229.494 158.532 229.602 159.204 229.59 159.996L223.542 160.104C223.542 160.848 223.626 161.508 223.794 162.084C223.974 162.648 224.262 163.098 224.658 163.434C225.054 163.758 225.576 163.92 226.224 163.92C226.512 163.92 226.818 163.872 227.142 163.776C227.478 163.668 227.808 163.512 228.132 163.308C228.456 163.092 228.744 162.828 228.996 162.516L229.68 163.146C229.284 163.722 228.846 164.166 228.366 164.478C227.886 164.79 227.406 165 226.926 165.108C226.446 165.228 226.002 165.288 225.594 165.288ZM223.632 159.024H227.376C227.364 158.544 227.292 158.142 227.16 157.818C227.04 157.482 226.86 157.23 226.62 157.062C226.38 156.882 226.086 156.792 225.738 156.792C225.15 156.792 224.676 156.99 224.316 157.386C223.968 157.77 223.74 158.316 223.632 159.024ZM230.743 164.046C231.091 164.046 231.337 163.974 231.481 163.83C231.637 163.674 231.727 163.458 231.751 163.182C231.787 162.906 231.805 162.594 231.805 162.246V154.47C231.805 154.266 231.811 154.044 231.823 153.804C231.835 153.552 231.853 153.294 231.877 153.03C231.673 153.042 231.451 153.054 231.211 153.066C230.971 153.078 230.767 153.09 230.599 153.102V151.932C231.151 151.932 231.601 151.908 231.949 151.86C232.309 151.8 232.585 151.728 232.777 151.644C232.981 151.56 233.125 151.482 233.209 151.41H234.019L234.037 162.426C234.037 162.618 234.031 162.852 234.019 163.128C234.007 163.392 233.983 163.65 233.947 163.902C234.151 163.878 234.361 163.866 234.577 163.866C234.793 163.854 234.973 163.848 235.117 163.848V165H230.743V164.046ZM240.802 165.288C239.95 165.288 239.176 165.102 238.48 164.73C237.784 164.346 237.232 163.812 236.824 163.128C236.428 162.432 236.23 161.622 236.23 160.698C236.23 159.726 236.434 158.862 236.842 158.106C237.25 157.35 237.796 156.762 238.48 156.342C239.176 155.922 239.938 155.712 240.766 155.712C241.618 155.712 242.386 155.904 243.07 156.288C243.754 156.672 244.294 157.206 244.69 157.89C245.098 158.574 245.302 159.384 245.302 160.32C245.302 161.304 245.104 162.174 244.708 162.93C244.324 163.674 243.79 164.256 243.106 164.676C242.434 165.084 241.666 165.288 240.802 165.288ZM240.892 164.19C241.432 164.19 241.846 164.022 242.134 163.686C242.422 163.35 242.62 162.924 242.728 162.408C242.848 161.88 242.908 161.34 242.908 160.788C242.908 160.32 242.866 159.846 242.782 159.366C242.71 158.886 242.59 158.454 242.422 158.07C242.254 157.674 242.032 157.362 241.756 157.134C241.48 156.894 241.144 156.774 240.748 156.774C240.22 156.786 239.8 156.96 239.488 157.296C239.176 157.632 238.948 158.058 238.804 158.574C238.672 159.09 238.606 159.636 238.606 160.212C238.606 160.86 238.684 161.496 238.84 162.12C238.996 162.732 239.242 163.236 239.578 163.632C239.914 164.016 240.352 164.202 240.892 164.19ZM246.495 169.59V168.636C246.843 168.636 247.089 168.558 247.233 168.402C247.389 168.258 247.485 168.048 247.521 167.772C247.557 167.496 247.575 167.184 247.575 166.836L247.593 158.862C247.593 158.646 247.593 158.418 247.593 158.178C247.605 157.938 247.629 157.692 247.665 157.44C247.461 157.452 247.233 157.464 246.981 157.476C246.741 157.488 246.543 157.5 246.387 157.512V156.342C246.939 156.342 247.383 156.318 247.719 156.27C248.067 156.21 248.331 156.138 248.511 156.054C248.703 155.97 248.841 155.892 248.925 155.82H249.699C249.723 155.94 249.741 156.084 249.753 156.252C249.765 156.42 249.777 156.576 249.789 156.72C250.185 156.372 250.605 156.12 251.049 155.964C251.493 155.796 251.919 155.712 252.327 155.712C253.047 155.712 253.689 155.898 254.253 156.27C254.817 156.63 255.261 157.152 255.585 157.836C255.909 158.508 256.071 159.306 256.071 160.23C256.071 161.214 255.873 162.09 255.477 162.858C255.093 163.614 254.565 164.208 253.893 164.64C253.221 165.072 252.447 165.288 251.571 165.288C251.211 165.288 250.887 165.246 250.599 165.162C250.311 165.09 250.041 164.994 249.789 164.874V167.016C249.789 167.208 249.783 167.436 249.771 167.7C249.771 167.976 249.753 168.24 249.717 168.492C249.909 168.468 250.113 168.45 250.329 168.438C250.545 168.438 250.725 168.438 250.869 168.438V169.59H246.495ZM251.373 164.154C251.925 164.142 252.369 163.974 252.705 163.65C253.053 163.314 253.305 162.87 253.461 162.318C253.617 161.766 253.695 161.166 253.695 160.518C253.695 159.93 253.617 159.372 253.461 158.844C253.317 158.316 253.083 157.89 252.759 157.566C252.435 157.242 252.003 157.08 251.463 157.08C251.127 157.092 250.809 157.176 250.509 157.332C250.221 157.488 249.981 157.692 249.789 157.944C249.789 158.208 249.789 158.478 249.789 158.754C249.789 159.03 249.789 159.324 249.789 159.636C249.789 159.948 249.789 160.302 249.789 160.698C249.789 161.082 249.789 161.52 249.789 162.012C249.789 162.504 249.789 163.068 249.789 163.704C249.981 163.836 250.215 163.944 250.491 164.028C250.767 164.112 251.061 164.154 251.373 164.154ZM257.468 165V164.046C257.816 164.046 258.062 163.974 258.206 163.83C258.35 163.674 258.44 163.458 258.476 163.182C258.512 162.906 258.53 162.594 258.53 162.246V158.862C258.53 158.646 258.536 158.418 258.548 158.178C258.56 157.938 258.578 157.692 258.602 157.44C258.398 157.452 258.176 157.464 257.936 157.476C257.696 157.488 257.498 157.5 257.342 157.512V156.342C257.882 156.342 258.326 156.318 258.674 156.27C259.022 156.21 259.292 156.138 259.484 156.054C259.676 155.97 259.814 155.892 259.898 155.82H260.654C260.678 155.94 260.69 156.09 260.69 156.27C260.702 156.438 260.714 156.594 260.726 156.738C261.122 156.426 261.554 156.18 262.022 156C262.49 155.808 262.946 155.712 263.39 155.712C263.954 155.712 264.422 155.814 264.794 156.018C265.178 156.222 265.478 156.516 265.694 156.9C266.114 156.552 266.588 156.27 267.116 156.054C267.644 155.826 268.154 155.712 268.646 155.712C269.642 155.712 270.386 156.006 270.878 156.594C271.382 157.17 271.628 158.154 271.616 159.546V162.426C271.616 162.618 271.61 162.852 271.598 163.128C271.586 163.392 271.568 163.65 271.544 163.902C271.736 163.878 271.94 163.866 272.156 163.866C272.372 163.854 272.552 163.848 272.696 163.848V165H268.43V164.046C268.742 164.046 268.964 163.974 269.096 163.83C269.228 163.674 269.306 163.458 269.33 163.182C269.366 162.906 269.384 162.594 269.384 162.246V159.564C269.384 158.7 269.246 158.082 268.97 157.71C268.694 157.338 268.304 157.152 267.8 157.152C267.464 157.14 267.14 157.206 266.828 157.35C266.528 157.482 266.264 157.644 266.036 157.836C266.096 158.064 266.138 158.31 266.162 158.574C266.186 158.838 266.198 159.12 266.198 159.42C266.198 159.924 266.198 160.428 266.198 160.932C266.198 161.424 266.192 161.922 266.18 162.426C266.18 162.618 266.174 162.852 266.162 163.128C266.162 163.392 266.144 163.65 266.108 163.902C266.3 163.878 266.504 163.866 266.72 163.866C266.936 163.854 267.122 163.848 267.278 163.848V165H262.958V164.046C263.282 164.046 263.51 163.974 263.642 163.83C263.786 163.674 263.876 163.458 263.912 163.182C263.948 162.906 263.966 162.594 263.966 162.246V159.528C263.966 158.664 263.834 158.052 263.57 157.692C263.318 157.32 262.94 157.128 262.436 157.116C262.112 157.116 261.8 157.188 261.5 157.332C261.212 157.476 260.96 157.65 260.744 157.854C260.744 158.01 260.744 158.166 260.744 158.322C260.744 158.466 260.744 158.616 260.744 158.772V162.426C260.744 162.618 260.738 162.852 260.726 163.128C260.726 163.392 260.708 163.65 260.672 163.902C260.864 163.878 261.056 163.866 261.248 163.866C261.452 163.854 261.626 163.848 261.77 163.848V165H257.468ZM278.17 165.288C277.306 165.288 276.538 165.096 275.866 164.712C275.194 164.316 274.672 163.764 274.3 163.056C273.928 162.336 273.742 161.49 273.742 160.518C273.742 159.678 273.928 158.892 274.3 158.16C274.672 157.428 275.194 156.84 275.866 156.396C276.55 155.94 277.342 155.712 278.242 155.712C278.746 155.712 279.232 155.784 279.7 155.928C280.168 156.072 280.588 156.312 280.96 156.648C281.332 156.984 281.626 157.428 281.842 157.98C282.07 158.532 282.178 159.204 282.166 159.996L276.118 160.104C276.118 160.848 276.202 161.508 276.37 162.084C276.55 162.648 276.838 163.098 277.234 163.434C277.63 163.758 278.152 163.92 278.8 163.92C279.088 163.92 279.394 163.872 279.718 163.776C280.054 163.668 280.384 163.512 280.708 163.308C281.032 163.092 281.32 162.828 281.572 162.516L282.256 163.146C281.86 163.722 281.422 164.166 280.942 164.478C280.462 164.79 279.982 165 279.502 165.108C279.022 165.228 278.578 165.288 278.17 165.288ZM276.208 159.024H279.952C279.94 158.544 279.868 158.142 279.736 157.818C279.616 157.482 279.436 157.23 279.196 157.062C278.956 156.882 278.662 156.792 278.314 156.792C277.726 156.792 277.252 156.99 276.892 157.386C276.544 157.77 276.316 158.316 276.208 159.024ZM283.571 165V164.046C283.919 164.046 284.165 163.974 284.309 163.83C284.453 163.674 284.543 163.458 284.579 163.182C284.615 162.906 284.633 162.594 284.633 162.246V158.862C284.633 158.646 284.639 158.418 284.651 158.178C284.663 157.938 284.681 157.692 284.705 157.44C284.513 157.452 284.291 157.464 284.039 157.476C283.799 157.488 283.601 157.5 283.445 157.512V156.342C283.985 156.342 284.429 156.318 284.777 156.27C285.125 156.21 285.395 156.138 285.587 156.054C285.779 155.97 285.917 155.892 286.001 155.82H286.757C286.781 155.952 286.793 156.06 286.793 156.144C286.793 156.228 286.799 156.318 286.811 156.414C286.823 156.498 286.841 156.624 286.865 156.792C287.105 156.588 287.381 156.408 287.693 156.252C288.017 156.084 288.341 155.952 288.665 155.856C288.989 155.76 289.289 155.712 289.565 155.712C290.645 155.712 291.419 156.03 291.887 156.666C292.355 157.302 292.589 158.316 292.589 159.708V162.426C292.589 162.618 292.583 162.852 292.571 163.128C292.571 163.392 292.553 163.65 292.517 163.902C292.721 163.878 292.931 163.866 293.147 163.866C293.363 163.854 293.543 163.848 293.687 163.848V165H289.313V164.046C289.661 164.046 289.907 163.974 290.051 163.83C290.207 163.674 290.303 163.458 290.339 163.182C290.375 162.906 290.393 162.594 290.393 162.246L290.375 159.69C290.375 158.826 290.243 158.184 289.979 157.764C289.727 157.332 289.307 157.116 288.719 157.116C288.371 157.128 288.029 157.212 287.693 157.368C287.357 157.524 287.075 157.722 286.847 157.962C286.859 158.106 286.865 158.256 286.865 158.412C286.865 158.568 286.865 158.724 286.865 158.88L286.847 162.426C286.847 162.618 286.841 162.852 286.829 163.128C286.829 163.392 286.811 163.65 286.775 163.902C286.967 163.878 287.171 163.866 287.387 163.866C287.615 163.854 287.801 163.848 287.945 163.848V165H283.571ZM298.226 165.288C297.89 165.288 297.56 165.246 297.236 165.162C296.924 165.078 296.636 164.922 296.372 164.694C296.12 164.466 295.916 164.13 295.76 163.686C295.604 163.23 295.526 162.63 295.526 161.886L295.562 157.242L294.284 157.26V156C294.644 155.988 294.992 155.868 295.328 155.64C295.664 155.4 295.958 155.088 296.21 154.704C296.462 154.32 296.63 153.912 296.714 153.48H297.812L297.794 156H300.332V157.152L297.794 157.206L297.776 161.832C297.776 162.192 297.806 162.528 297.866 162.84C297.938 163.14 298.058 163.38 298.226 163.56C298.406 163.74 298.646 163.83 298.946 163.83C299.174 163.83 299.432 163.758 299.72 163.614C300.02 163.47 300.32 163.182 300.62 162.75L301.358 163.416C301.058 163.872 300.746 164.226 300.422 164.478C300.11 164.73 299.804 164.916 299.504 165.036C299.216 165.156 298.958 165.228 298.73 165.252C298.502 165.276 298.334 165.288 298.226 165.288ZM305.984 165V163.974C306.32 163.974 306.59 163.878 306.794 163.686C306.998 163.494 307.166 163.242 307.298 162.93C307.43 162.606 307.568 162.246 307.712 161.85L311.294 152.076H312.266L316.172 162.03C316.244 162.234 316.34 162.522 316.46 162.894C316.58 163.266 316.646 163.59 316.658 163.866C316.862 163.854 317.06 163.842 317.252 163.83C317.444 163.818 317.612 163.812 317.756 163.812V165H313.166V164.01C313.538 164.01 313.79 163.932 313.922 163.776C314.054 163.62 314.108 163.416 314.084 163.164C314.072 162.912 314.012 162.654 313.904 162.39L313.454 161.166L309.278 161.238L308.882 162.444C308.81 162.648 308.726 162.882 308.63 163.146C308.534 163.398 308.438 163.626 308.342 163.83C308.558 163.818 308.792 163.806 309.044 163.794C309.308 163.782 309.518 163.776 309.674 163.776V165H305.984ZM309.674 160.086H313.058L312.086 157.44C311.942 157.032 311.804 156.624 311.672 156.216C311.552 155.796 311.45 155.412 311.366 155.064H311.33C311.258 155.304 311.168 155.616 311.06 156C310.964 156.384 310.826 156.822 310.646 157.314L309.674 160.086ZM322.425 165.288C321.873 165.288 321.357 165.216 320.877 165.072C320.397 164.928 320.013 164.754 319.725 164.55L319.779 165.126H318.609L318.519 162.03H319.491C319.527 162.438 319.671 162.81 319.923 163.146C320.175 163.47 320.499 163.728 320.895 163.92C321.303 164.1 321.753 164.19 322.245 164.19C322.485 164.19 322.713 164.154 322.929 164.082C323.157 164.01 323.343 163.896 323.487 163.74C323.643 163.572 323.721 163.362 323.721 163.11C323.721 162.846 323.631 162.63 323.451 162.462C323.283 162.294 323.043 162.138 322.731 161.994C322.419 161.85 322.053 161.7 321.633 161.544C321.261 161.4 320.889 161.25 320.517 161.094C320.145 160.938 319.803 160.752 319.491 160.536C319.179 160.308 318.927 160.032 318.735 159.708C318.543 159.384 318.447 158.988 318.447 158.52C318.447 158.196 318.507 157.872 318.627 157.548C318.747 157.224 318.939 156.924 319.203 156.648C319.467 156.36 319.803 156.132 320.211 155.964C320.631 155.796 321.141 155.712 321.741 155.712C322.065 155.712 322.431 155.766 322.839 155.874C323.247 155.97 323.607 156.138 323.919 156.378L323.901 155.802H325.071V158.97H324.099C324.039 158.55 323.907 158.178 323.703 157.854C323.499 157.518 323.229 157.254 322.893 157.062C322.557 156.87 322.155 156.774 321.687 156.774C321.303 156.774 320.979 156.87 320.715 157.062C320.451 157.242 320.319 157.512 320.319 157.872C320.319 158.172 320.421 158.418 320.625 158.61C320.829 158.802 321.105 158.964 321.453 159.096C321.801 159.228 322.179 159.372 322.587 159.528C323.151 159.72 323.661 159.948 324.117 160.212C324.585 160.476 324.957 160.794 325.233 161.166C325.509 161.538 325.647 162 325.647 162.552C325.647 163.176 325.491 163.692 325.179 164.1C324.867 164.496 324.465 164.796 323.973 165C323.481 165.192 322.965 165.288 322.425 165.288ZM331.021 165.288C330.469 165.288 329.953 165.216 329.473 165.072C328.993 164.928 328.609 164.754 328.321 164.55L328.375 165.126H327.205L327.115 162.03H328.087C328.123 162.438 328.267 162.81 328.519 163.146C328.771 163.47 329.095 163.728 329.491 163.92C329.899 164.1 330.349 164.19 330.841 164.19C331.081 164.19 331.309 164.154 331.525 164.082C331.753 164.01 331.939 163.896 332.083 163.74C332.239 163.572 332.317 163.362 332.317 163.11C332.317 162.846 332.227 162.63 332.047 162.462C331.879 162.294 331.639 162.138 331.327 161.994C331.015 161.85 330.649 161.7 330.229 161.544C329.857 161.4 329.485 161.25 329.113 161.094C328.741 160.938 328.399 160.752 328.087 160.536C327.775 160.308 327.523 160.032 327.331 159.708C327.139 159.384 327.043 158.988 327.043 158.52C327.043 158.196 327.103 157.872 327.223 157.548C327.343 157.224 327.535 156.924 327.799 156.648C328.063 156.36 328.399 156.132 328.807 155.964C329.227 155.796 329.737 155.712 330.337 155.712C330.661 155.712 331.027 155.766 331.435 155.874C331.843 155.97 332.203 156.138 332.515 156.378L332.497 155.802H333.667V158.97H332.695C332.635 158.55 332.503 158.178 332.299 157.854C332.095 157.518 331.825 157.254 331.489 157.062C331.153 156.87 330.751 156.774 330.283 156.774C329.899 156.774 329.575 156.87 329.311 157.062C329.047 157.242 328.915 157.512 328.915 157.872C328.915 158.172 329.017 158.418 329.221 158.61C329.425 158.802 329.701 158.964 330.049 159.096C330.397 159.228 330.775 159.372 331.183 159.528C331.747 159.72 332.257 159.948 332.713 160.212C333.181 160.476 333.553 160.794 333.829 161.166C334.105 161.538 334.243 162 334.243 162.552C334.243 163.176 334.087 163.692 333.775 164.1C333.463 164.496 333.061 164.796 332.569 165C332.077 165.192 331.561 165.288 331.021 165.288ZM340.048 165.288C339.196 165.288 338.422 165.102 337.726 164.73C337.03 164.346 336.478 163.812 336.07 163.128C335.674 162.432 335.476 161.622 335.476 160.698C335.476 159.726 335.68 158.862 336.088 158.106C336.496 157.35 337.042 156.762 337.726 156.342C338.422 155.922 339.184 155.712 340.012 155.712C340.864 155.712 341.632 155.904 342.316 156.288C343 156.672 343.54 157.206 343.936 157.89C344.344 158.574 344.548 159.384 344.548 160.32C344.548 161.304 344.35 162.174 343.954 162.93C343.57 163.674 343.036 164.256 342.352 164.676C341.68 165.084 340.912 165.288 340.048 165.288ZM340.138 164.19C340.678 164.19 341.092 164.022 341.38 163.686C341.668 163.35 341.866 162.924 341.974 162.408C342.094 161.88 342.154 161.34 342.154 160.788C342.154 160.32 342.112 159.846 342.028 159.366C341.956 158.886 341.836 158.454 341.668 158.07C341.5 157.674 341.278 157.362 341.002 157.134C340.726 156.894 340.39 156.774 339.994 156.774C339.466 156.786 339.046 156.96 338.734 157.296C338.422 157.632 338.194 158.058 338.05 158.574C337.918 159.09 337.852 159.636 337.852 160.212C337.852 160.86 337.93 161.496 338.086 162.12C338.242 162.732 338.488 163.236 338.824 163.632C339.16 164.016 339.598 164.202 340.138 164.19ZM350.223 165.288C349.419 165.288 348.675 165.108 347.991 164.748C347.319 164.388 346.779 163.866 346.371 163.182C345.975 162.486 345.777 161.652 345.777 160.68C345.777 160.02 345.891 159.396 346.119 158.808C346.347 158.208 346.665 157.68 347.073 157.224C347.493 156.756 347.991 156.39 348.567 156.126C349.143 155.85 349.779 155.712 350.475 155.712C351.207 155.712 351.825 155.826 352.329 156.054C352.833 156.27 353.217 156.564 353.481 156.936C353.745 157.296 353.877 157.68 353.877 158.088C353.877 158.412 353.781 158.694 353.589 158.934C353.409 159.174 353.145 159.3 352.797 159.312C352.389 159.324 352.101 159.21 351.933 158.97C351.777 158.718 351.699 158.484 351.699 158.268C351.699 158.148 351.717 158.022 351.753 157.89C351.789 157.746 351.849 157.614 351.933 157.494C351.849 157.278 351.711 157.122 351.519 157.026C351.327 156.918 351.129 156.846 350.925 156.81C350.721 156.774 350.559 156.762 350.439 156.774C349.779 156.798 349.233 157.098 348.801 157.674C348.369 158.25 348.153 159.09 348.153 160.194C348.153 160.854 348.243 161.466 348.423 162.03C348.615 162.582 348.903 163.032 349.287 163.38C349.671 163.716 350.163 163.89 350.763 163.902C351.291 163.914 351.801 163.788 352.293 163.524C352.785 163.248 353.187 162.894 353.499 162.462L354.219 163.128C353.823 163.692 353.397 164.13 352.941 164.442C352.485 164.754 352.023 164.97 351.555 165.09C351.099 165.222 350.655 165.288 350.223 165.288ZM355.343 164.046C355.691 164.046 355.937 163.974 356.081 163.83C356.225 163.674 356.315 163.458 356.351 163.182C356.387 162.906 356.405 162.594 356.405 162.246V158.88C356.405 158.676 356.411 158.454 356.423 158.214C356.435 157.962 356.453 157.704 356.477 157.44C356.273 157.452 356.051 157.464 355.811 157.476C355.571 157.488 355.373 157.5 355.217 157.512V156.342C355.757 156.342 356.201 156.318 356.549 156.27C356.909 156.21 357.185 156.138 357.377 156.054C357.581 155.97 357.725 155.892 357.809 155.82H358.619V162.426C358.619 162.618 358.613 162.852 358.601 163.128C358.601 163.392 358.583 163.65 358.547 163.902C358.739 163.878 358.943 163.866 359.159 163.866C359.387 163.854 359.573 163.848 359.717 163.848V165H355.343V164.046ZM357.413 154.272C357.065 154.272 356.771 154.146 356.531 153.894C356.291 153.63 356.171 153.312 356.171 152.94C356.171 152.568 356.291 152.25 356.531 151.986C356.783 151.722 357.077 151.59 357.413 151.59C357.761 151.59 358.049 151.722 358.277 151.986C358.517 152.25 358.637 152.568 358.637 152.94C358.637 153.312 358.523 153.63 358.295 153.894C358.067 154.146 357.773 154.272 357.413 154.272ZM366.116 165C366.08 164.82 366.056 164.67 366.044 164.55C366.044 164.418 366.038 164.268 366.026 164.1C365.618 164.508 365.18 164.808 364.712 165C364.256 165.192 363.782 165.288 363.29 165.288C362.474 165.288 361.844 165.066 361.4 164.622C360.968 164.178 360.752 163.632 360.752 162.984C360.752 162.408 360.908 161.922 361.22 161.526C361.532 161.118 361.94 160.788 362.444 160.536C362.948 160.272 363.506 160.074 364.118 159.942C364.73 159.798 365.336 159.72 365.936 159.708V158.718C365.936 158.37 365.894 158.052 365.81 157.764C365.738 157.464 365.6 157.23 365.396 157.062C365.192 156.882 364.892 156.792 364.496 156.792C364.232 156.804 363.962 156.864 363.686 156.972C363.422 157.068 363.212 157.224 363.056 157.44C363.152 157.548 363.212 157.668 363.236 157.8C363.26 157.92 363.272 158.028 363.272 158.124C363.272 158.34 363.188 158.568 363.02 158.808C362.852 159.036 362.582 159.144 362.21 159.132C361.886 159.12 361.634 159.006 361.454 158.79C361.286 158.574 361.202 158.316 361.202 158.016C361.202 157.56 361.364 157.164 361.688 156.828C362.024 156.48 362.474 156.21 363.038 156.018C363.602 155.814 364.232 155.712 364.928 155.712C365.96 155.712 366.752 155.982 367.304 156.522C367.856 157.062 368.126 157.926 368.114 159.114C368.114 159.534 368.114 159.918 368.114 160.266C368.114 160.602 368.108 160.944 368.096 161.292C368.096 161.628 368.096 162.006 368.096 162.426C368.096 162.606 368.09 162.834 368.078 163.11C368.066 163.374 368.048 163.638 368.024 163.902C368.24 163.878 368.456 163.866 368.672 163.866C368.9 163.854 369.086 163.842 369.23 163.83V165H366.116ZM365.918 160.77C365.558 160.794 365.204 160.854 364.856 160.95C364.508 161.034 364.196 161.154 363.92 161.31C363.644 161.466 363.422 161.664 363.254 161.904C363.098 162.132 363.026 162.396 363.038 162.696C363.05 163.068 363.17 163.344 363.398 163.524C363.626 163.692 363.89 163.776 364.19 163.776C364.538 163.776 364.85 163.704 365.126 163.56C365.414 163.416 365.678 163.224 365.918 162.984C365.918 162.864 365.918 162.738 365.918 162.606C365.918 162.474 365.918 162.342 365.918 162.21C365.918 162.042 365.918 161.832 365.918 161.58C365.918 161.328 365.918 161.058 365.918 160.77ZM373.759 165.288C373.423 165.288 373.093 165.246 372.769 165.162C372.457 165.078 372.169 164.922 371.905 164.694C371.653 164.466 371.449 164.13 371.293 163.686C371.137 163.23 371.059 162.63 371.059 161.886L371.095 157.242L369.817 157.26V156C370.177 155.988 370.525 155.868 370.861 155.64C371.197 155.4 371.491 155.088 371.743 154.704C371.995 154.32 372.163 153.912 372.247 153.48H373.345L373.327 156H375.865V157.152L373.327 157.206L373.309 161.832C373.309 162.192 373.339 162.528 373.399 162.84C373.471 163.14 373.591 163.38 373.759 163.56C373.939 163.74 374.179 163.83 374.479 163.83C374.707 163.83 374.965 163.758 375.253 163.614C375.553 163.47 375.853 163.182 376.153 162.75L376.891 163.416C376.591 163.872 376.279 164.226 375.955 164.478C375.643 164.73 375.337 164.916 375.037 165.036C374.749 165.156 374.491 165.228 374.263 165.252C374.035 165.276 373.867 165.288 373.759 165.288ZM377.527 164.046C377.875 164.046 378.121 163.974 378.265 163.83C378.409 163.674 378.499 163.458 378.535 163.182C378.571 162.906 378.589 162.594 378.589 162.246V158.88C378.589 158.676 378.595 158.454 378.607 158.214C378.619 157.962 378.637 157.704 378.661 157.44C378.457 157.452 378.235 157.464 377.995 157.476C377.755 157.488 377.557 157.5 377.401 157.512V156.342C377.941 156.342 378.385 156.318 378.733 156.27C379.093 156.21 379.369 156.138 379.561 156.054C379.765 155.97 379.909 155.892 379.993 155.82H380.803V162.426C380.803 162.618 380.797 162.852 380.785 163.128C380.785 163.392 380.767 163.65 380.731 163.902C380.923 163.878 381.127 163.866 381.343 163.866C381.571 163.854 381.757 163.848 381.901 163.848V165H377.527V164.046ZM379.597 154.272C379.249 154.272 378.955 154.146 378.715 153.894C378.475 153.63 378.355 153.312 378.355 152.94C378.355 152.568 378.475 152.25 378.715 151.986C378.967 151.722 379.261 151.59 379.597 151.59C379.945 151.59 380.233 151.722 380.461 151.986C380.701 152.25 380.821 152.568 380.821 152.94C380.821 153.312 380.707 153.63 380.479 153.894C380.251 154.146 379.957 154.272 379.597 154.272ZM387.562 165.288C386.71 165.288 385.936 165.102 385.24 164.73C384.544 164.346 383.992 163.812 383.584 163.128C383.188 162.432 382.99 161.622 382.99 160.698C382.99 159.726 383.194 158.862 383.602 158.106C384.01 157.35 384.556 156.762 385.24 156.342C385.936 155.922 386.698 155.712 387.526 155.712C388.378 155.712 389.146 155.904 389.83 156.288C390.514 156.672 391.054 157.206 391.45 157.89C391.858 158.574 392.062 159.384 392.062 160.32C392.062 161.304 391.864 162.174 391.468 162.93C391.084 163.674 390.55 164.256 389.866 164.676C389.194 165.084 388.426 165.288 387.562 165.288ZM387.652 164.19C388.192 164.19 388.606 164.022 388.894 163.686C389.182 163.35 389.38 162.924 389.488 162.408C389.608 161.88 389.668 161.34 389.668 160.788C389.668 160.32 389.626 159.846 389.542 159.366C389.47 158.886 389.35 158.454 389.182 158.07C389.014 157.674 388.792 157.362 388.516 157.134C388.24 156.894 387.904 156.774 387.508 156.774C386.98 156.786 386.56 156.96 386.248 157.296C385.936 157.632 385.708 158.058 385.564 158.574C385.432 159.09 385.366 159.636 385.366 160.212C385.366 160.86 385.444 161.496 385.6 162.12C385.756 162.732 386.002 163.236 386.338 163.632C386.674 164.016 387.112 164.202 387.652 164.19ZM393.435 165V164.046C393.783 164.046 394.029 163.974 394.173 163.83C394.317 163.674 394.407 163.458 394.443 163.182C394.479 162.906 394.497 162.594 394.497 162.246V158.862C394.497 158.646 394.503 158.418 394.515 158.178C394.527 157.938 394.545 157.692 394.569 157.44C394.377 157.452 394.155 157.464 393.903 157.476C393.663 157.488 393.465 157.5 393.309 157.512V156.342C393.849 156.342 394.293 156.318 394.641 156.27C394.989 156.21 395.259 156.138 395.451 156.054C395.643 155.97 395.781 155.892 395.865 155.82H396.621C396.645 155.952 396.657 156.06 396.657 156.144C396.657 156.228 396.663 156.318 396.675 156.414C396.687 156.498 396.705 156.624 396.729 156.792C396.969 156.588 397.245 156.408 397.557 156.252C397.881 156.084 398.205 155.952 398.529 155.856C398.853 155.76 399.153 155.712 399.429 155.712C400.509 155.712 401.283 156.03 401.751 156.666C402.219 157.302 402.453 158.316 402.453 159.708V162.426C402.453 162.618 402.447 162.852 402.435 163.128C402.435 163.392 402.417 163.65 402.381 163.902C402.585 163.878 402.795 163.866 403.011 163.866C403.227 163.854 403.407 163.848 403.551 163.848V165H399.177V164.046C399.525 164.046 399.771 163.974 399.915 163.83C400.071 163.674 400.167 163.458 400.203 163.182C400.239 162.906 400.257 162.594 400.257 162.246L400.239 159.69C400.239 158.826 400.107 158.184 399.843 157.764C399.591 157.332 399.171 157.116 398.583 157.116C398.235 157.128 397.893 157.212 397.557 157.368C397.221 157.524 396.939 157.722 396.711 157.962C396.723 158.106 396.729 158.256 396.729 158.412C396.729 158.568 396.729 158.724 396.729 158.88L396.711 162.426C396.711 162.618 396.705 162.852 396.693 163.128C396.693 163.392 396.675 163.65 396.639 163.902C396.831 163.878 397.035 163.866 397.251 163.866C397.479 163.854 397.665 163.848 397.809 163.848V165H393.435Z" fill="white"/>
<path fill-rule="evenodd" clip-rule="evenodd" d="M215 2.27763C201.124 6.50863 183.527 11.6836 180 12.5706C177.404 13.2226 176.412 14.0616 176.161 15.8166C175.835 18.0906 176.011 18.1606 180.661 17.6066C183.322 17.2896 192.25 14.9076 200.5 12.3126C208.75 9.71762 217.525 7.09762 220 6.48962C225.721 5.08362 227 4.23163 227 1.82463C227 -0.723375 224.537 -0.630375 215 2.27763ZM134 14.4436C134 17.5536 144.157 26.8526 151.54 30.5006C157.372 33.3836 160.257 34.1586 166.817 34.6086C176.758 35.2896 183.344 34.0736 201.225 28.2556C224.288 20.7506 236.904 19.1446 247.57 22.3546C255.695 24.7996 256.648 20.0206 248.591 17.2316C237.314 13.3276 227.067 14.5236 200.687 22.8226C191.99 25.5586 181.865 28.2066 178.187 28.7076C163.914 30.6516 150.992 26.7996 140.339 17.4256C134.683 12.4486 134 12.1276 134 14.4436ZM224.5 32.3366C220.65 33.0366 211.2 35.6616 203.5 38.1696C189.046 42.8766 176.38 45.8836 171 45.8836C169.304 45.8836 164.55 45.1886 160.435 44.3386C152.183 42.6336 150.437 42.9626 152.021 45.9236C153.788 49.2246 163.012 51.2046 173.935 50.6276C181.655 50.2196 186.393 49.2076 198.5 45.3806C219.974 38.5926 222.639 37.9256 231.026 37.2386C243.852 36.1876 252.975 39.1566 263.853 47.9226C267.24 50.6506 270.233 52.8836 270.505 52.8836C270.777 52.8836 271 52.0486 271 51.0286C271 48.7216 262.067 40.1706 255.864 36.5406C251.138 33.7746 239.916 30.8596 234.5 30.9916C232.85 31.0316 228.35 31.6366 224.5 32.3366ZM228.467 48.0416C224.599 48.4516 216.049 50.4516 209.467 52.4866C185.569 59.8736 181.964 60.8036 174.635 61.4676C164.737 62.3646 155.084 60.0296 146.949 54.7726C141.996 51.5706 140.831 51.1606 140.338 52.4446C138.677 56.7726 153.089 65.3766 164.242 66.7146C174.204 67.9106 182.698 66.5046 201.563 60.5366C210.878 57.5896 221.59 54.6006 225.367 53.8956C234.586 52.1736 244.612 53.1016 251.661 56.3286C258.005 59.2326 260 59.5026 260 57.4566C260 54.0466 248.711 48.5536 240 47.7236C237.525 47.4886 232.335 47.6316 228.467 48.0416ZM137.671 65.5456C136.482 66.7346 139.914 71.4826 144.151 74.5096C154.977 82.2416 165.597 84.8756 178.116 82.9336C186.662 81.6076 189 80.4906 189 77.7346C189 75.9366 188.562 75.7356 185.75 76.2436C183.962 76.5656 178.624 77.1296 173.887 77.4956C166.666 78.0546 164.141 77.8176 158.258 76.0306C154.399 74.8586 149.049 72.3286 146.371 70.4096C139.632 65.5806 138.352 64.8646 137.671 65.5456Z" fill="#3EA448"/>
<defs>
<linearGradient id="paint0_linear_412_404" x1="202.5" y1="84" x2="202.5" y2="148" gradientUnits="userSpaceOnUse">
<stop stop-color="#3EA448"/>
<stop offset="0.331597" stop-color="#3EA448" stop-opacity="0.5"/>
<stop offset="0.659722" stop-color="white" stop-opacity="0.69375"/>
<stop offset="0.972222" stop-color="white"/>
</linearGradient>
</defs>
</svg>
